<?xml version="1.0" encoding="utf-8"?>
<!DOCTYPE svg PUBLIC "-//W3C//DTD SVG 1.1//EN" "http://www.w3.org/Graphics/SVG/1.1/DTD/svg11.dtd">
<svg version="1.1" id="Layer_1" xmlns="http://www.w3.org/2000/svg" xmlns:xlink="http://www.w3.org/1999/xlink" x="0px" y="0px"
	 width="55px" height="55px" viewBox="0 0 55 55" style="enable-background:new 0 0 55 55;" xml:space="preserve">
<g>
	<path d="M30.145,21.989c-0.236-0.265-0.553-0.397-0.95-0.397c-0.766,0-1.425,0.477-1.977,1.431
		c-0.553,0.953-0.828,1.875-0.828,2.766c0,0.538,0.123,0.973,0.369,1.304c0.247,0.331,0.595,0.497,1.044,0.497
		c0.788,0,1.434-0.599,1.938-1.795c0.504-1.196,0.757-2.137,0.757-2.821C30.498,22.582,30.38,22.255,30.145,21.989z"/>
	<path d="M28.916,9.143c-11.644,0-21.083,6.645-21.083,14.841c0,6.945,6.78,12.775,15.936,14.393
		c-0.109,1.821-0.817,4.79-3.997,6.91c4.392-1.256,5.199-1.325,9.838-6.475C40.933,38.554,50,32.016,50,23.983
		C50,15.787,40.561,9.143,28.916,9.143z M29.349,28.361c-0.625,0.567-1.376,0.851-2.253,0.851c-0.891,0-1.633-0.32-2.225-0.961
		c-0.593-0.641-0.89-1.535-0.89-2.684c0-1.332,0.453-2.58,1.358-3.743c0.906-1.164,2.018-1.745,3.336-1.745
		c0.772,0,1.373,0.213,1.8,0.641c0.324,0.331,0.541,0.71,0.651,1.137l0.397-1.391h2.088l-1.414,4.793
		c-0.11,0.39-0.189,0.679-0.237,0.866c-0.048,0.188-0.072,0.352-0.072,0.492c0,0.221,0.074,0.429,0.222,0.623
		c0.146,0.195,0.383,0.293,0.706,0.293c0.634,0,1.269-0.414,1.905-1.242s0.955-1.927,0.955-3.297c0-2.024-0.868-3.479-2.606-4.362
		c-1.089-0.56-2.315-0.839-3.677-0.839c-2.504,0-4.514,0.766-6.03,2.297c-1.369,1.385-2.054,3.045-2.054,4.98
		c0,2.15,0.802,3.854,2.407,5.113c1.421,1.112,3.154,1.668,5.201,1.668c1.399,0,2.706-0.258,3.921-0.773
		c0.663-0.272,1.348-0.658,2.054-1.159l0.266-0.188l0.806,1.236c-1.045,0.811-2.177,1.427-3.396,1.85
		c-1.219,0.424-2.483,0.636-3.794,0.636c-3.055,0-5.422-0.95-7.101-2.85c-1.392-1.575-2.088-3.441-2.088-5.6
		c0-2.414,0.869-4.461,2.606-6.14c1.826-1.774,4.164-2.662,7.013-2.662c2.319,0,4.241,0.607,5.766,1.822
		c1.604,1.281,2.407,2.982,2.407,5.103c0,1.671-0.508,3.105-1.524,4.302c-1.016,1.196-2.176,1.794-3.479,1.794
		c-0.678,0-1.198-0.191-1.562-0.574s-0.547-0.776-0.547-1.182c0-0.051,0.002-0.108,0.006-0.171c0.003-0.062,0.009-0.131,0.017-0.204
		C30.008,27.622,29.695,28.045,29.349,28.361z"/>
</g>
</svg>
