<?xml version="1.0" encoding="utf-8"?>
<!DOCTYPE svg PUBLIC "-//W3C//DTD SVG 1.1//EN" "http://www.w3.org/Graphics/SVG/1.1/DTD/svg11.dtd">
<svg version="1.1" id="Layer_1" xmlns="http://www.w3.org/2000/svg" xmlns:xlink="http://www.w3.org/1999/xlink" x="0px" y="0px"
	 width="100px" height="100px" viewBox="0 0 100 100" style="enable-background:new 0 0 100 100;" xml:space="preserve">
<path style="fill:#299E6A;" d="M100,94c0,3.313-2.687,6-6,6H6c-3.313,0-6-2.687-6-6V6c0-3.313,2.687-6,6-6h88c3.313,0,6,2.687,6,6
	V94z"/>
<path style="fill:#FFFFFF;" d="M90,44.357c0-15.582-17.946-28.214-40.084-28.214c-22.137,0-40.083,12.632-40.083,28.214
	c0,13.206,12.89,24.289,30.296,27.364c-0.208,3.463-1.553,9.105-7.6,13.136c8.351-2.386,9.886-2.519,18.704-12.309
	C72.761,72.058,90,59.628,90,44.357z"/>
<g>
	<path style="fill:#299E6A;" d="M42.225,49.593c-1.127-1.218-1.689-2.918-1.689-5.102c0-2.533,0.859-4.906,2.582-7.118
		c1.721-2.211,3.834-3.317,6.34-3.317c1.471,0,2.611,0.406,3.424,1.218c0.615,0.63,1.027,1.351,1.238,2.163l0.756-2.646h3.969
		l-2.688,9.112c-0.211,0.742-0.361,1.292-0.453,1.648c-0.09,0.357-0.135,0.669-0.135,0.935c0,0.42,0.139,0.815,0.42,1.187
		c0.279,0.371,0.727,0.556,1.344,0.556c1.203,0,2.41-0.788,3.621-2.362c1.211-1.575,1.816-3.664,1.816-6.268
		c0-3.849-1.652-6.614-4.955-8.293c-2.072-1.063-4.402-1.596-6.992-1.596c-4.76,0-8.58,1.456-11.463,4.367
		c-2.604,2.632-3.906,5.788-3.906,9.469c0,4.087,1.525,7.328,4.578,9.721c2.701,2.114,5.996,3.17,9.889,3.17
		c2.658,0,5.145-0.49,7.453-1.47c1.26-0.518,2.562-1.252,3.906-2.205l0.504-0.357l1.531,2.352c-1.986,1.54-4.139,2.712-6.455,3.517
		c-2.318,0.805-4.721,1.208-7.213,1.208c-5.809,0-10.309-1.806-13.5-5.417c-2.646-2.995-3.969-6.543-3.969-10.645
		c0-4.591,1.652-8.482,4.955-11.674c3.471-3.373,7.916-5.06,13.332-5.06c4.41,0,8.062,1.155,10.961,3.464
		c3.051,2.436,4.576,5.669,4.576,9.7c0,3.178-0.965,5.903-2.896,8.178c-1.932,2.275-4.137,3.412-6.613,3.412
		c-1.289,0-2.279-0.364-2.973-1.092c-0.691-0.728-1.039-1.477-1.039-2.247c0-0.098,0.004-0.207,0.012-0.326
		c0.006-0.119,0.018-0.248,0.031-0.388c-0.533,1.008-1.127,1.813-1.785,2.415c-1.189,1.078-2.617,1.617-4.283,1.617
		C44.762,51.419,43.352,50.811,42.225,49.593z M52.25,37.688c-0.447-0.504-1.049-0.756-1.805-0.756c-1.457,0-2.709,0.906-3.76,2.719
		c-1.049,1.812-1.574,3.566-1.574,5.259c0,1.022,0.234,1.848,0.703,2.478s1.131,0.945,1.984,0.945c1.498,0,2.727-1.137,3.686-3.412
		c0.957-2.274,1.438-4.062,1.438-5.364C52.922,38.815,52.697,38.192,52.25,37.688z"/>
</g>
</svg>
